<svg xmlns="http://www.w3.org/2000/svg" xmlns:xlink="http://www.w3.org/1999/xlink" width="365.288" height="222.992" viewBox="0 0 365.288 222.992">
  <defs>
    <linearGradient id="linear-gradient" x1="1.238" y1="1.29" x2="0.098" y2="0.068" gradientUnits="objectBoundingBox">
      <stop offset="0" stop-color="#80f"/>
      <stop offset="1" stop-color="#144bff"/>
    </linearGradient>
  </defs>
  <path id="Path_18" data-name="Path 18" d="M-89.782,3.7q-26.8,0-47.74-13.244t-32.8-38.346Q-182.182-73-182.182-107.8t11.858-59.906q11.858-25.1,32.8-38.346t47.74-13.244q26.8,0,47.74,13.244t32.8,38.346Q2.618-142.6,2.618-107.8T-9.24-47.894q-11.858,25.1-32.8,38.346T-89.782,3.7Zm0-42.2q19.712,0,30.954-16.94t11.242-52.36q0-35.42-11.242-52.36T-89.782-177.1q-19.4,0-30.646,16.94T-131.67-107.8q0,35.42,11.242,52.36T-89.782-38.5Zm214.368-89.32q28.336,4.62,43.428,21.1t15.092,40.81a64.4,64.4,0,0,1-9.856,34.65Q163.394-15.4,143.22-5.852T93.786,3.7A169.572,169.572,0,0,1,48.972-2.31Q26.95-8.316,11.55-19.4L30.954-57.6a94.008,94.008,0,0,0,28.49,14.322,109.8,109.8,0,0,0,33.11,5.082q18.788,0,29.568-7.238T132.9-65.912Q132.9-92.4,92.554-92.4H69.762v-32.956l44.352-50.2H22.33V-215.6H173.25v32.34Z" transform="translate(182.182 219.296)" fill="url(#linear-gradient)"/>
</svg>
