<svg id="facebook" xmlns="http://www.w3.org/2000/svg" width="57.43" height="57.43" viewBox="0 0 57.43 57.43">
  <path id="Path_3" data-name="Path 3" d="M291.575,508.668q-.359.059-.72.108Q291.217,508.727,291.575,508.668Zm0,0" transform="translate(-258.231 -451.612)" fill="#fff"/>
  <path id="Path_4" data-name="Path 4" d="M299.682,507.793c-.114.021-.229.04-.343.06C299.454,507.833,299.568,507.814,299.682,507.793Zm0,0" transform="translate(-265.763 -450.835)" fill="#fff"/>
  <path id="Path_5" data-name="Path 5" d="M278.454,510.34q-.42.047-.844.083Q278.034,510.388,278.454,510.34Zm0,0" transform="translate(-246.471 -453.097)" fill="#fff"/>
  <path id="Path_6" data-name="Path 6" d="M286.85,509.738c-.134.018-.27.035-.4.05C286.581,509.773,286.716,509.756,286.85,509.738Zm0,0" transform="translate(-254.316 -452.562)" fill="#fff"/>
  <path id="Path_7" data-name="Path 7" d="M306.967,506.41l-.3.063Zm0,0" transform="translate(-272.266 -449.607)" fill="#fff"/>
  <path id="Path_8" data-name="Path 8" d="M324.729,502.113l-.244.068Zm0,0" transform="translate(-288.088 -445.792)" fill="#fff"/>
  <path id="Path_9" data-name="Path 9" d="M319.325,503.543l-.266.069Zm0,0" transform="translate(-283.271 -447.062)" fill="#fff"/>
  <path id="Path_10" data-name="Path 10" d="M312.35,505.254l-.283.063Zm0,0" transform="translate(-277.063 -448.581)" fill="#fff"/>
  <path id="Path_11" data-name="Path 11" d="M273.934,511.09q-.227.019-.454.034Q273.708,511.109,273.934,511.09Zm0,0" transform="translate(-242.805 -453.762)" fill="#fff"/>
  <path id="Path_12" data-name="Path 12" d="M57.43,28.715A28.715,28.715,0,1,0,28.715,57.43c.169,0,.337,0,.5-.007V35.07H23.05V27.88H29.22V22.59c0-6.136,3.746-9.476,9.219-9.476a50.784,50.784,0,0,1,5.531.283v6.413H40.2c-2.978,0-3.554,1.415-3.554,3.492V27.88h7.12l-.928,7.19H36.641V56.32A28.73,28.73,0,0,0,57.43,28.715Zm0,0" transform="translate(0 0)" fill="#fff"/>
  <path id="Path_13" data-name="Path 13" d="M265.791,511.43q-.448.029-.9.045Q265.342,511.46,265.791,511.43Zm0,0" transform="translate(-235.178 -454.064)" fill="#fff"/>
  <path id="Path_14" data-name="Path 14" d="M260.981,511.836q-.238.008-.477.012Q260.743,511.844,260.981,511.836Zm0,0" transform="translate(-231.284 -454.425)" fill="#fff"/>
</svg>
