<svg
      xmlns="http://www.w3.org/2000/svg"
      width="57.43"
      height="57.43"
      viewBox="0 0 57.43 57.43"
    >
      <path
        fill="#fff"
        d="M28.715 0A28.715 28.715 0 1057.43 28.715 28.718 28.718 0 0028.715 0zm13.111 22.389q.019.424.019.852c0 8.709-6.629 18.752-18.753 18.753a18.656 18.656 0 01-10.1-2.961 13.406 13.406 0 001.572.091 13.225 13.225 0 008.184-2.824 6.6 6.6 0 01-6.157-4.578 6.569 6.569 0 002.977-.113 6.593 6.593 0 01-5.288-6.461v-.084a6.545 6.545 0 002.985.824 6.6 6.6 0 01-2.04-8.8 18.712 18.712 0 0013.585 6.891 6.594 6.594 0 0111.231-6.011 13.219 13.219 0 004.185-1.6 6.617 6.617 0 01-2.9 3.645 13.145 13.145 0 003.785-1.038 13.394 13.394 0 01-3.287 3.413zm0 0"
      ></path>
    </svg>