<svg id="youtube" xmlns="http://www.w3.org/2000/svg" width="57.43" height="57.43" viewBox="0 0 57.43 57.43">
  <path id="Path_1" data-name="Path 1" d="M224.113,218.8l9.341-5.38-9.341-5.38Zm0,0" transform="translate(-198.975 -184.704)" fill="#fff"/>
  <path id="Path_2" data-name="Path 2" d="M28.715,0A28.715,28.715,0,1,0,57.43,28.715,28.718,28.718,0,0,0,28.715,0ZM46.657,28.744a47.393,47.393,0,0,1-.739,8.632,4.5,4.5,0,0,1-3.163,3.163c-2.808.739-14.041.739-14.041.739s-11.2,0-14.041-.769a4.5,4.5,0,0,1-3.163-3.163c-.739-2.778-.739-8.631-.739-8.631a47.362,47.362,0,0,1,.739-8.631,4.588,4.588,0,0,1,3.163-3.192c2.808-.739,14.041-.739,14.041-.739s11.233,0,14.041.769a4.5,4.5,0,0,1,3.163,3.163c.769,2.808.739,8.661.739,8.661Zm0,0" transform="translate(0 0)" fill="#fff"/>
</svg>
